<svg width="743" height="333" viewBox="0 0 743 333" fill="none" xmlns="http://www.w3.org/2000/svg">
<path d="M21.23 277.106L76.181 196.433L99.2286 209.089L73.6119 302.138C59.9705 303.267 50.3505 302.496 42.4499 298.794C34.5637 295.1 28.1713 288.38 21.23 277.106Z" fill="#D2B48C" stroke="black" stroke-width="3"/>
<path d="M153.769 44.8254C195.145 63.2471 212.798 114.311 192.902 159C173.006 203.689 123.246 224.74 81.8691 206.318C40.4925 187.896 22.8396 136.832 42.7359 92.1433C62.6322 47.4545 112.392 26.4037 153.769 44.8254Z" fill="#3A89FF" stroke="black" stroke-width="3"/>
<circle cx="169.033" cy="182.371" r="24" transform="rotate(19.7736 169.033 182.371)" fill="white" stroke="black" stroke-width="3"/>
<path d="M267.95 88.004L268.006 111.14C268.007 111.588 268.264 111.875 268.776 112.002C271.209 112.316 273.577 112.47 275.881 112.465C281.065 112.452 284.999 111.323 287.681 109.076C290.428 106.766 291.796 103.498 291.786 99.2743C291.765 90.7623 286.443 86.5192 275.819 86.5449C273.515 86.5505 271.147 86.7162 268.716 87.0421C268.204 87.1714 267.949 87.492 267.95 88.004ZM260.221 147.159C258.749 147.162 257.468 146.622 256.377 145.536C255.351 144.451 254.836 143.172 254.832 141.7L254.69 83.044C254.686 81.508 255.195 80.1308 256.216 78.9123C257.237 77.6939 258.516 77.0188 260.051 76.887C265.49 76.3619 270.737 76.0932 275.793 76.081C285.393 76.0577 292.598 77.9603 297.407 81.7887C302.216 85.553 304.63 91.0512 304.647 98.2832C304.667 106.283 302.345 112.337 297.683 116.444C293.085 120.551 286.242 122.616 277.154 122.638C275.042 122.643 272.258 122.522 268.801 122.274C268.289 122.275 268.034 122.532 268.035 123.044L268.08 141.668C268.084 143.14 267.543 144.421 266.457 145.512C265.372 146.602 264.093 147.149 262.621 147.153L260.221 147.159ZM322.518 147.008C321.046 147.012 319.765 146.471 318.674 145.385C317.584 144.3 317.037 143.021 317.033 141.549L316.939 102.573C316.935 101.101 317.476 99.8202 318.562 98.7295C319.647 97.6389 320.926 97.0918 322.398 97.0882L324.894 97.0822C326.366 97.0786 327.647 97.6195 328.738 98.7049C329.828 99.7903 330.375 101.069 330.379 102.541L330.473 141.517C330.477 142.989 329.936 144.27 328.85 145.361C327.765 146.451 326.486 146.998 325.014 147.002L322.518 147.008ZM322.372 86.5283C320.9 86.5318 319.619 85.9909 318.528 84.9056C317.437 83.8202 316.89 82.5415 316.887 81.0695L316.885 80.4935C316.882 79.0215 317.423 77.7402 318.508 76.6496C319.593 75.559 320.872 75.0119 322.344 75.0083L324.84 75.0023C326.312 74.9987 327.593 75.5396 328.684 76.625C329.775 77.7103 330.322 78.989 330.325 80.461L330.327 81.037C330.33 82.509 329.789 83.7903 328.704 84.8809C327.619 85.9716 326.34 86.5187 324.868 86.5222L322.372 86.5283ZM352.076 146.937C350.604 146.94 349.322 146.399 348.232 145.314C347.141 144.229 346.594 142.95 346.591 141.478L346.496 102.502C346.493 101.03 347.034 99.7486 348.119 98.658C349.204 97.5674 350.483 97.0203 351.955 97.0167L353.203 97.0137C354.739 97.01 356.02 97.5509 357.047 98.6364C358.137 99.6578 358.716 100.936 358.784 102.472L358.786 103.144C358.786 103.208 358.818 103.24 358.882 103.24C358.946 103.24 359.01 103.208 359.074 103.144C363.414 98.397 368.497 96.0167 374.321 96.0026C380.145 95.9885 384.373 97.6423 387.005 100.964C389.701 104.221 391.058 109.69 391.076 117.37L391.134 141.37C391.138 142.842 390.597 144.123 389.512 145.214C388.426 146.305 387.148 146.852 385.676 146.855L384.044 146.859C382.572 146.863 381.29 146.322 380.2 145.237C379.173 144.151 378.658 142.872 378.654 141.4L378.599 118.36C378.587 113.56 377.939 110.298 376.655 108.573C375.435 106.784 373.225 105.893 370.025 105.901C367.401 105.907 364.971 107.033 362.737 109.279C360.502 111.524 359.388 113.927 359.394 116.487L359.455 141.447C359.458 142.919 358.917 144.2 357.832 145.291C356.746 146.381 355.468 146.928 353.996 146.932L352.076 146.937ZM424.137 105.482C417.097 105.499 413.589 110.628 413.614 120.868C413.627 126.18 414.565 130.145 416.427 132.765C418.353 135.384 420.948 136.69 424.212 136.682C427.092 136.675 429.554 135.645 431.597 133.592C433.704 131.539 434.754 129.136 434.748 126.384L434.722 116.016C434.715 113.073 433.653 110.579 431.536 108.536C429.483 106.493 427.017 105.475 424.137 105.482ZM420.204 146.292C414.572 146.305 409.958 144.077 406.363 139.605C402.768 135.07 400.961 128.834 400.942 120.898C400.923 112.962 402.604 106.814 405.986 102.454C409.431 98.0936 414.13 95.9063 420.082 95.8919C423.09 95.8846 425.747 96.4222 428.054 97.5046C430.36 98.587 432.637 100.405 434.883 102.96C434.947 103.024 435.011 103.056 435.075 103.056C435.139 103.055 435.171 103.023 435.171 102.959L435.169 102.287C435.23 100.751 435.802 99.4698 436.888 98.4432C437.973 97.3526 439.284 96.8054 440.82 96.8017L441.876 96.7991C443.348 96.7956 444.597 97.3365 445.624 98.4221C446.715 99.5074 447.262 100.786 447.265 102.258L447.363 142.866C447.405 160.146 438.786 168.807 421.506 168.849C418.434 168.856 415.202 168.608 411.808 168.104C410.272 167.852 408.99 167.087 407.963 165.809C407 164.596 406.517 163.189 406.513 161.589C406.51 160.309 407.019 159.284 408.041 158.513C409.128 157.807 410.311 157.612 411.592 157.929C414.666 158.689 417.867 159.065 421.195 159.057C425.931 159.046 429.384 157.79 431.553 155.288C433.724 152.851 434.802 148.816 434.788 143.184L434.781 140.208C434.781 140.144 434.749 140.113 434.685 140.113C434.621 140.113 434.557 140.145 434.493 140.209C430.663 144.25 425.9 146.278 420.204 146.292ZM501.949 87.4377L502.005 110.574C502.007 111.022 502.263 111.309 502.776 111.436C505.208 111.75 507.577 111.904 509.881 111.899C515.065 111.886 518.998 110.757 521.681 108.51C524.427 106.199 525.795 102.932 525.785 98.7081C525.764 90.1961 520.442 85.953 509.818 85.9787C507.514 85.9843 505.146 86.15 502.715 86.4759C502.203 86.6051 501.948 86.9257 501.949 87.4377ZM494.221 146.593C492.749 146.596 491.467 146.055 490.377 144.97C489.35 143.884 488.835 142.606 488.831 141.134L488.689 82.4778C488.686 80.9418 489.194 79.5646 490.215 78.3461C491.237 77.1276 492.515 76.4525 494.051 76.3208C499.489 75.7957 504.737 75.527 509.793 75.5147C519.393 75.4915 526.597 77.3941 531.407 81.2224C536.216 84.9868 538.629 90.485 538.646 97.717C538.666 105.717 536.344 111.771 531.682 115.878C527.084 119.985 520.241 122.05 511.153 122.072C509.041 122.077 506.257 121.955 502.8 121.708C502.288 121.709 502.033 121.966 502.034 122.478L502.079 141.102C502.083 142.574 501.542 143.855 500.457 144.946C499.371 146.036 498.093 146.583 496.621 146.587L494.221 146.593ZM575.576 108.86C573.713 106.176 570.894 104.839 567.118 104.848C563.342 104.857 560.497 106.208 558.584 108.901C556.734 111.529 555.816 115.723 555.83 121.483C555.844 127.243 556.782 131.465 558.645 134.149C560.571 136.768 563.422 138.073 567.198 138.064C570.974 138.055 573.787 136.736 575.637 134.108C577.55 131.415 578.5 127.189 578.486 121.429C578.472 115.669 577.502 111.479 575.576 108.86ZM585.061 140.613C580.848 145.103 574.901 147.357 567.221 147.376C559.541 147.395 553.552 145.169 549.253 140.699C545.018 136.166 542.89 129.771 542.87 121.515C542.85 113.259 544.947 106.886 549.16 102.396C553.437 97.8412 559.416 95.5547 567.096 95.5361C574.776 95.5175 580.733 97.7751 584.968 102.309C589.267 106.779 591.426 113.141 591.446 121.397C591.466 129.653 589.338 136.058 585.061 140.613ZM606.888 146.32C605.416 146.324 604.134 145.783 603.044 144.697C601.953 143.612 601.406 142.333 601.402 140.861L601.308 101.885C601.304 100.413 601.845 99.132 602.931 98.0414C604.016 96.9508 605.295 96.4037 606.767 96.4001L608.015 96.3971C609.551 96.3934 610.832 96.9343 611.859 98.0198C612.949 99.0412 613.528 100.32 613.596 101.856L613.598 102.528C613.598 102.592 613.63 102.624 613.694 102.623C613.758 102.623 613.822 102.591 613.886 102.527C618.226 97.7804 623.308 95.4001 629.132 95.386C634.956 95.3719 639.184 97.0257 641.816 100.347C644.512 103.605 645.87 109.074 645.888 116.754L645.946 140.753C645.95 142.225 645.409 143.507 644.323 144.597C643.238 145.688 641.959 146.235 640.487 146.239L638.855 146.243C637.383 146.246 636.102 145.705 635.012 144.62C633.985 143.534 633.47 142.256 633.466 140.784L633.41 117.744C633.399 112.944 632.751 109.681 631.467 107.956C630.246 106.167 628.036 105.277 624.836 105.284C622.212 105.291 619.783 106.417 617.548 108.662C615.314 110.907 614.2 113.31 614.206 115.87L614.266 140.83C614.27 142.302 613.729 143.583 612.644 144.674C611.558 145.765 610.28 146.312 608.808 146.315L606.888 146.32ZM678.949 104.865C671.909 104.883 668.401 110.011 668.426 120.251C668.439 125.563 669.376 129.529 671.239 132.148C673.165 134.768 675.76 136.073 679.024 136.065C681.904 136.058 684.366 135.028 686.409 132.976C688.516 130.922 689.566 128.52 689.559 125.768L689.534 115.4C689.527 112.456 688.465 109.962 686.348 107.92C684.295 105.877 681.829 104.859 678.949 104.865ZM675.015 145.675C669.383 145.689 664.77 143.46 661.175 138.989C657.58 134.453 655.773 128.218 655.754 120.282C655.735 112.346 657.416 106.198 660.797 101.837C664.243 97.4771 668.941 95.2897 674.893 95.2753C677.901 95.268 680.559 95.8056 682.865 96.888C685.172 97.9704 687.448 99.7889 689.695 102.343C689.759 102.407 689.823 102.439 689.887 102.439C689.951 102.439 689.983 102.407 689.983 102.343L689.981 101.671C690.041 100.135 690.614 98.8532 691.7 97.8266C692.785 96.736 694.096 96.1888 695.632 96.1851L696.688 96.1825C698.16 96.179 699.409 96.72 700.436 97.8055C701.526 98.8908 702.073 100.17 702.077 101.642L702.175 142.249C702.217 159.529 693.598 168.19 676.318 168.232C673.246 168.239 670.013 167.991 666.62 167.488C665.084 167.235 663.802 166.47 662.775 165.193C661.812 163.979 661.328 162.572 661.324 160.972C661.321 159.692 661.831 158.667 662.853 157.897C663.939 157.19 665.123 156.995 666.404 157.312C669.477 158.073 672.678 158.449 676.006 158.441C680.742 158.429 684.195 157.173 686.365 154.672C688.535 152.234 689.614 148.2 689.6 142.568L689.593 139.592C689.593 139.528 689.561 139.496 689.497 139.496C689.433 139.496 689.369 139.528 689.305 139.593C685.475 143.634 680.711 145.661 675.015 145.675ZM258.121 231.22C256.649 231.224 255.367 230.715 254.277 229.693C253.186 228.608 252.639 227.329 252.636 225.857L252.635 225.569C252.631 224.097 253.172 222.816 254.258 221.725C255.343 220.635 256.622 220.088 258.094 220.084L298.99 219.985C300.462 219.982 301.743 220.523 302.834 221.608C303.924 222.693 304.471 223.972 304.475 225.444L304.476 225.732C304.479 227.204 303.938 228.485 302.853 229.576C301.767 230.603 300.489 231.118 299.017 231.121L286.153 231.152C285.641 231.154 285.385 231.442 285.387 232.018L285.514 284.626C285.518 286.098 284.977 287.379 283.891 288.47C282.806 289.561 281.527 290.108 280.055 290.111L277.367 290.118C275.895 290.121 274.614 289.58 273.523 288.495C272.433 287.41 271.886 286.131 271.882 284.659L271.755 232.051C271.753 231.475 271.497 231.188 270.985 231.189L258.121 231.22ZM317.172 290.021C315.7 290.025 314.419 289.484 313.328 288.399C312.237 287.313 311.69 286.035 311.687 284.563L311.592 245.587C311.589 244.115 312.13 242.834 313.215 241.743C314.3 240.652 315.579 240.105 317.051 240.102L318.971 240.097C320.443 240.093 321.724 240.634 322.815 241.72C323.906 242.805 324.453 244.084 324.456 245.556L324.466 249.588C324.466 249.652 324.498 249.684 324.562 249.683C324.69 249.683 324.754 249.651 324.754 249.587C326.604 247.023 329.031 244.937 332.035 243.329C335.039 241.658 338.332 240.626 341.916 240.233C343.259 240.102 344.412 240.547 345.375 241.569C346.337 242.527 346.82 243.678 346.823 245.022C346.826 246.366 346.349 247.519 345.391 248.481C344.434 249.443 343.283 249.99 341.939 250.121C330.614 251.045 324.964 256.819 324.989 267.442L325.031 284.53C325.034 286.002 324.493 287.284 323.408 288.374C322.323 289.465 321.044 290.012 319.572 290.016L317.172 290.021ZM378.849 265.872C369.697 265.894 365.128 268.721 365.142 274.353C365.147 276.401 365.727 278.064 366.882 279.341C368.101 280.618 369.638 281.254 371.494 281.25C375.142 281.241 378.084 280.114 380.318 277.869C382.553 275.559 383.665 272.421 383.655 268.453L383.651 266.725C383.65 266.149 383.361 265.861 382.785 265.863L378.849 265.872ZM368.062 290.858C363.71 290.869 360.09 289.47 357.203 286.661C354.38 283.787 352.963 280.079 352.952 275.535C352.939 269.967 355.041 265.642 359.257 262.56C363.538 259.477 370.062 257.925 378.83 257.904L382.766 257.895C383.342 257.893 383.629 257.605 383.628 257.029L383.626 256.261C383.619 253.317 382.91 251.27 381.499 250.122C380.088 248.909 377.591 248.307 374.007 248.316C370.295 248.325 365.752 249.008 360.38 250.365C359.228 250.688 358.172 250.498 357.21 249.796C356.248 249.031 355.766 248.04 355.763 246.824C355.759 245.352 356.204 244.039 357.097 242.885C357.991 241.667 359.141 240.928 360.548 240.668C365.409 239.569 369.984 239.014 374.272 239.003C382.464 238.983 388.196 240.441 391.467 243.378C394.738 246.314 396.382 251.462 396.4 258.822L396.462 284.358C396.465 285.83 395.925 287.111 394.839 288.202C393.818 289.292 392.571 289.839 391.099 289.843L390.043 289.845C388.507 289.849 387.194 289.34 386.103 288.319C385.013 287.233 384.434 285.923 384.366 284.387L384.363 283.043C384.363 282.979 384.33 282.947 384.266 282.947C384.138 282.947 384.075 282.98 384.075 283.044C380.183 288.237 374.846 290.842 368.062 290.858ZM430.61 290.707C422.674 290.726 416.557 288.565 412.258 284.223C407.959 279.818 405.8 273.359 405.779 264.847C405.759 256.463 407.791 250.058 411.877 245.632C416.026 241.142 421.908 238.888 429.524 238.869C432.916 238.861 436.181 239.077 439.318 239.518C440.791 239.706 442.008 240.375 442.971 241.525C443.934 242.675 444.417 244.017 444.421 245.553C444.424 246.833 443.914 247.859 442.892 248.629C441.934 249.399 440.815 249.658 439.534 249.405C437.037 248.899 434.252 248.65 431.18 248.657C427.148 248.667 424.143 249.954 422.165 252.519C420.188 255.084 419.206 259.182 419.219 264.814C419.233 270.574 420.299 274.7 422.417 277.191C424.535 279.682 427.802 280.922 432.218 280.911C435.354 280.903 438.073 280.609 440.376 280.027C441.591 279.704 442.68 279.926 443.642 280.691C444.668 281.457 445.182 282.448 445.185 283.664C445.189 285.2 444.712 286.545 443.755 287.699C442.861 288.853 441.679 289.56 440.208 289.82C436.945 290.404 433.746 290.699 430.61 290.707ZM463.901 289.666C462.429 289.67 461.148 289.129 460.058 288.044C458.967 286.958 458.42 285.68 458.416 284.208L458.269 223.152C458.265 221.68 458.806 220.399 459.891 219.308C460.977 218.217 462.255 217.67 463.727 217.667L465.647 217.662C467.119 217.658 468.401 218.199 469.491 219.285C470.582 220.37 471.129 221.649 471.132 223.121L471.222 260.081C471.222 260.145 471.254 260.177 471.318 260.176L471.414 260.176L485.966 243.725C488.328 241.031 491.333 239.68 494.981 239.671L499.013 239.661C500.037 239.659 500.742 240.137 501.128 241.096C501.578 242.055 501.452 242.919 500.75 243.689L483.229 263.124C482.91 263.508 482.911 263.924 483.232 264.372L501.043 285.449C501.749 286.279 501.848 287.175 501.338 288.136C500.892 289.097 500.157 289.579 499.133 289.581L495.101 289.591C491.453 289.6 488.474 288.199 486.163 285.389L471.432 267.664C471.432 267.6 471.4 267.568 471.336 267.568C471.272 267.569 471.24 267.601 471.24 267.665L471.28 284.177C471.284 285.649 470.743 286.93 469.658 288.02C468.572 289.111 467.293 289.658 465.821 289.662L463.901 289.666ZM528.45 247.558C525.186 247.566 522.66 248.5 520.873 250.36C519.149 252.157 518.068 255.071 517.63 259.104C517.631 259.616 517.888 259.872 518.4 259.87L537.215 259.825C537.727 259.824 537.983 259.567 537.982 259.055C537.707 251.376 534.53 247.543 528.45 247.558ZM530.954 290.464C522.57 290.484 516.1 288.324 511.546 283.983C507.055 279.578 504.8 273.119 504.779 264.607C504.759 256.159 506.759 249.723 510.78 245.297C514.802 240.871 520.62 238.649 528.236 238.631C542.444 238.596 549.76 246.643 550.183 262.77C550.25 264.305 549.709 265.587 548.56 266.613C547.41 267.64 546.068 268.156 544.532 268.159L518.324 268.223C517.748 268.224 517.524 268.513 517.654 269.088C518.112 273.375 519.528 276.508 521.901 278.486C524.337 280.4 527.86 281.352 532.468 281.34C535.348 281.333 538.546 280.846 542.064 279.877C543.215 279.554 544.272 279.744 545.233 280.446C546.259 281.147 546.773 282.106 546.776 283.322C546.78 284.794 546.335 286.107 545.442 287.261C544.613 288.351 543.494 289.026 542.087 289.285C538.505 290.062 534.794 290.455 530.954 290.464ZM566.077 289.419C564.605 289.423 563.324 288.882 562.233 287.796C561.143 286.711 560.596 285.432 560.592 283.96L560.498 244.985C560.494 243.513 561.035 242.231 562.121 241.141C563.206 240.05 564.485 239.503 565.957 239.499L567.877 239.495C569.349 239.491 570.63 240.032 571.721 241.117C572.811 242.203 573.358 243.481 573.362 244.953L573.372 248.985C573.372 249.049 573.404 249.081 573.468 249.081C573.596 249.081 573.66 249.049 573.66 248.985C575.509 246.42 577.936 244.334 580.94 242.727C583.944 241.056 587.238 240.024 590.821 239.631C592.165 239.5 593.318 239.945 594.28 240.967C595.243 241.924 595.725 243.075 595.729 244.419C595.732 245.763 595.255 246.916 594.297 247.879C593.339 248.841 592.189 249.388 590.845 249.519C579.519 250.443 573.869 256.216 573.895 266.84L573.936 283.928C573.94 285.4 573.399 286.681 572.313 287.772C571.228 288.863 569.949 289.41 568.477 289.413L566.077 289.419Z" fill="white"/>
</svg>



