<svg width="241" height="257" viewBox="0 0 241 257" fill="none" xmlns="http://www.w3.org/2000/svg">
<ellipse cx="147.5" cy="253.5" rx="92.5" ry="3.5" fill="#C4C4C4"/>
<circle cx="226.274" cy="168" r="13.5" fill="#6268FF" stroke="black"/>
<rect x="188.198" y="37.6746" width="12" height="24.8593" transform="rotate(27.5477 188.198 37.6746)" fill="#EFEABB" stroke="black"/>
<path d="M221.993 24.484L218.75 30.1069L219.858 23.7108L221.993 24.484Z" fill="black" stroke="black"/>
<path d="M184.615 25.2819C184.043 26.6295 183.285 27.7215 182.543 28.4023C181.764 29.1166 181.163 29.2482 180.82 29.1021C180.476 28.956 180.153 28.4321 180.127 27.376C180.101 26.3695 180.361 25.0658 180.933 23.7181C181.506 22.3704 182.264 21.2785 183.006 20.5977C183.784 19.8834 184.385 19.7518 184.729 19.8979C185.073 20.044 185.395 20.5679 185.422 21.624C185.447 22.6305 185.187 23.9342 184.615 25.2819Z" fill="#EFEABB" stroke="black"/>
<path d="M220.615 36.2819C220.043 37.6295 219.285 38.7215 218.543 39.4023C217.764 40.1166 217.163 40.2482 216.82 40.1021C216.476 39.956 216.153 39.4321 216.127 38.376C216.101 37.3695 216.361 36.0658 216.933 34.7181C217.506 33.3704 218.264 32.2785 219.006 31.5977C219.784 30.8834 220.385 30.7518 220.729 30.8979C221.073 31.044 221.395 31.5679 221.422 32.624C221.447 33.6305 221.187 34.9342 220.615 36.2819Z" fill="#EFEABB" stroke="black"/>
<path d="M217.809 36.1299C213.163 48.079 201.866 54.608 192.698 51.0434C183.53 47.4789 179.61 35.0329 184.256 23.0838C188.902 11.1347 200.2 4.60567 209.368 8.17025C218.536 11.7348 222.455 24.1808 217.809 36.1299Z" fill="#EFEABB" stroke="black"/>
<path d="M17.3225 236.035L29.8516 216.73L41.1313 225.531L27.2796 243.283L17.3225 236.035Z" fill="#54F41B" stroke="black"/>
<path d="M211 84L190 70L157 120.5L205 160.5L211 151.5L181.5 120.5L211 84Z" fill="#EFEABB" stroke="black"/>
<path d="M178.997 88.7549L178.022 66.4824C178.167 66.4784 178.342 66.4742 178.545 66.4706C179.208 66.4588 180.17 66.4524 181.362 66.4743C183.746 66.5181 187.05 66.675 190.725 67.1271C198.099 68.0342 206.874 70.1193 212.76 74.7822C214.044 75.7994 214.732 76.9775 214.982 78.2614C215.235 79.5569 215.05 81.0016 214.511 82.5492C213.431 85.655 210.973 89.0496 208.129 92.2197C205.294 95.3801 202.113 98.2758 199.638 100.384C198.401 101.437 197.342 102.292 196.593 102.884C196.226 103.173 195.934 103.4 195.731 103.555L178.997 88.7549Z" fill="#54F41B" stroke="black"/>
<rect x="211.459" y="161.871" width="16.039" height="6.54737" transform="rotate(-141.098 211.459 161.871)" fill="#FFF9C6" stroke="black"/>
<path d="M211.447 149.499L216.308 160.66L212.983 162.108C212.889 161.91 212.768 161.649 212.627 161.336C212.287 160.584 211.829 159.536 211.36 158.355C210.414 155.974 209.447 153.112 209.263 151.025C209.225 150.592 209.347 150.321 209.521 150.13C209.71 149.922 209.998 149.77 210.34 149.667C210.678 149.564 211.031 149.521 211.306 149.505C211.357 149.502 211.404 149.5 211.447 149.499Z" fill="#EFEABB" stroke="black"/>
<rect x="201.767" y="154.335" width="9.45405" height="5.30611" transform="rotate(31.9002 201.767 154.335)" fill="#EFEABB" stroke="black"/>
<path d="M138 138L120.5 120L75 174.5L28 223.5L34.5 230L89 187L138 138Z" fill="#EFEABB" stroke="black"/>
<path d="M155.219 45.6677L209.933 72.9012L160.022 138.847L113.896 126.181L155.219 45.6677Z" fill="#54F41B" stroke="black"/>
<path d="M153.5 132L134 145L177 187V245H189L198 175L153.5 132Z" fill="#EFEABB" stroke="black"/>
<path d="M200.774 246.559V252.5H172.774V242.576L200.774 246.559Z" fill="#54F41B" stroke="black"/>
<path d="M98 48L154.5 45.5L155.5 60H120.5L138.5 84.5H145V87.5H137.5L142.5 97L134.5 101L129.5 88.5L98 48Z" fill="#EFEABB" stroke="black"/>
<path d="M114 126L123.5 107.5L164.5 133L161 139L183.5 160.5L167 177.5L129.5 147.5L109.5 167L92 152.5L114 126Z" fill="#C4C4C4" stroke="black"/>
<rect x="193.136" y="0.622395" width="35" height="12.2506" transform="rotate(16.6665 193.136 0.622395)" fill="black" stroke="black"/>
<path d="M188.993 15.484L185.75 21.1069L186.858 14.7108L188.993 15.484Z" fill="black" stroke="black"/>
<path d="M134.5 60L147 60.5L168 68L164.5 51L155 46L131.5 47L134.5 60Z" fill="#54F41B"/>
<path d="M154.5 45.5L131 47L134 60L148 60.5" stroke="black" stroke-linecap="round" stroke-linejoin="round"/>
<path d="M186.125 15.0308C186.552 13.7343 187.511 12.5718 189.262 11.192L223.186 22.6735C223.682 24.9375 223.657 26.4741 223.179 27.7559C222.7 29.0372 221.743 30.1364 220.203 31.4738L186.288 19.9956C185.776 17.8452 185.697 16.3299 186.125 15.0308Z" fill="#54F41B" stroke="black"/>
<ellipse cx="33.5" cy="253.5" rx="33.5" ry="3.5" fill="#C4C4C4"/>
</svg>

