<svg width="428" height="377" viewBox="0 0 428 377" fill="none" xmlns="http://www.w3.org/2000/svg">
<path d="M83.4941 65C86.1141 65 86.4353 74.0774 86.4353 74.0774C86.4353 74.0774 95.2048 71.5685 95.9531 74.0774C96.7014 76.5864 88.253 79.6876 88.253 79.6876C88.253 79.6876 92.9317 87.3926 91.1942 88.7651C89.1518 90.3783 83.4941 83.1549 83.4941 83.1549C83.4941 83.1549 77.4584 90.0797 75.7941 88.7651C73.8873 87.259 78.7352 79.6876 78.7352 79.6876C78.7352 79.6876 70.394 76.4201 71.0352 74.0774C71.5584 72.1656 80.553 74.0774 80.553 74.0774C80.553 74.0774 80.8741 65 83.4941 65Z" fill="#ECFF12"/>
<path d="M271.994 53C274.719 53 275.053 62.0774 275.053 62.0774C275.053 62.0774 284.173 59.5685 284.951 62.0774C285.729 64.5864 276.943 67.6876 276.943 67.6876C276.943 67.6876 281.809 75.3926 280.002 76.7651C277.878 78.3783 271.994 71.1549 271.994 71.1549C271.994 71.1549 265.717 78.0797 263.986 76.7651C262.003 75.259 267.045 67.6876 267.045 67.6876C267.045 67.6876 258.37 64.4201 259.037 62.0774C259.581 60.1656 268.935 62.0774 268.935 62.0774C268.935 62.0774 269.269 53 271.994 53Z" fill="#ECFF12"/>
<path d="M25.9925 287C29.3461 287 29.7572 297.969 29.7572 297.969C29.7572 297.969 40.9821 294.937 41.9399 297.969C42.8977 301 32.0839 304.748 32.0839 304.748C32.0839 304.748 38.0726 314.058 35.8485 315.716C33.2343 317.665 25.9925 308.937 25.9925 308.937C25.9925 308.937 18.2668 317.305 16.1364 315.716C13.6958 313.896 19.9011 304.748 19.9011 304.748C19.9011 304.748 9.2243 300.799 10.045 297.969C10.7148 295.658 22.2278 297.969 22.2278 297.969C22.2278 297.969 22.6388 287 25.9925 287Z" fill="#ECFF12"/>
<path d="M15.9925 124C19.3461 124 19.7572 134.969 19.7572 134.969C19.7572 134.969 30.9821 131.937 31.9399 134.969C32.8977 138 22.0839 141.748 22.0839 141.748C22.0839 141.748 28.0726 151.058 25.8485 152.716C23.2343 154.665 15.9925 145.937 15.9925 145.937C15.9925 145.937 8.2668 154.305 6.13639 152.716C3.6958 150.896 9.90108 141.748 9.90108 141.748C9.90108 141.748 -0.775705 137.799 0.0450014 134.969C0.71477 132.658 12.2278 134.969 12.2278 134.969C12.2278 134.969 12.6388 124 15.9925 124Z" fill="#ECFF12"/>
<path d="M135.991 48C139.973 48 140.462 61.2379 140.462 61.2379C140.462 61.2379 153.791 57.5791 154.929 61.2379C156.066 64.8968 143.225 69.4194 143.225 69.4194C143.225 69.4194 150.336 80.6559 147.695 82.6574C144.591 85.01 135.991 74.4759 135.991 74.4759C135.991 74.4759 126.817 84.5746 124.287 82.6574C121.389 80.461 128.758 69.4194 128.758 69.4194C128.758 69.4194 116.079 64.6543 117.053 61.2379C117.849 58.4499 131.52 61.2379 131.52 61.2379C131.52 61.2379 132.009 48 135.991 48Z" fill="#ECFF12"/>
<path d="M336.991 48C340.973 48 341.462 61.2379 341.462 61.2379C341.462 61.2379 354.791 57.5791 355.929 61.2379C357.066 64.8968 344.225 69.4194 344.225 69.4194C344.225 69.4194 351.336 80.6559 348.695 82.6574C345.591 85.01 336.991 74.4759 336.991 74.4759C336.991 74.4759 327.817 84.5746 325.287 82.6574C322.389 80.461 329.758 69.4194 329.758 69.4194C329.758 69.4194 317.079 64.6543 318.053 61.2379C318.849 58.4499 332.52 61.2379 332.52 61.2379C332.52 61.2379 333.009 48 336.991 48Z" fill="#ECFF12"/>
<path d="M355.994 124C358.719 124 359.053 133.077 359.053 133.077C359.053 133.077 368.173 130.569 368.951 133.077C369.729 135.586 360.943 138.688 360.943 138.688C360.943 138.688 365.809 146.393 364.002 147.765C361.878 149.378 355.994 142.155 355.994 142.155C355.994 142.155 349.717 149.08 347.986 147.765C346.003 146.259 351.045 138.688 351.045 138.688C351.045 138.688 342.37 135.42 343.037 133.077C343.581 131.166 352.935 133.077 352.935 133.077C352.935 133.077 353.269 124 355.994 124Z" fill="#ECFF12"/>
<path d="M363.994 230C366.719 230 367.053 239.077 367.053 239.077C367.053 239.077 376.173 236.569 376.951 239.077C377.729 241.586 368.943 244.688 368.943 244.688C368.943 244.688 373.809 252.393 372.002 253.765C369.878 255.378 363.994 248.155 363.994 248.155C363.994 248.155 357.717 255.08 355.986 253.765C354.003 252.259 359.045 244.688 359.045 244.688C359.045 244.688 350.37 241.42 351.037 239.077C351.581 237.166 360.935 239.077 360.935 239.077C360.935 239.077 361.269 230 363.994 230Z" fill="#ECFF12"/>
<path d="M76.4941 304C79.1141 304 79.4353 313.077 79.4353 313.077C79.4353 313.077 88.2048 310.569 88.9531 313.077C89.7014 315.586 81.253 318.688 81.253 318.688C81.253 318.688 85.9317 326.393 84.1942 327.765C82.1518 329.378 76.4941 322.155 76.4941 322.155C76.4941 322.155 70.4584 329.08 68.7941 327.765C66.8873 326.259 71.7352 318.688 71.7352 318.688C71.7352 318.688 63.394 315.42 64.0352 313.077C64.5584 311.166 73.553 313.077 73.553 313.077C73.553 313.077 73.8741 304 76.4941 304Z" fill="#ECFF12"/>
<path d="M68.9925 169C72.3461 169 72.7572 179.969 72.7572 179.969C72.7572 179.969 83.9821 176.937 84.9399 179.969C85.8977 183 75.0839 186.748 75.0839 186.748C75.0839 186.748 81.0726 196.058 78.8485 197.716C76.2343 199.665 68.9925 190.937 68.9925 190.937C68.9925 190.937 61.2668 199.305 59.1364 197.716C56.6958 195.896 62.9011 186.748 62.9011 186.748C62.9011 186.748 52.2243 182.799 53.045 179.969C53.7148 177.658 65.2278 179.969 65.2278 179.969C65.2278 179.969 65.6388 169 68.9925 169Z" fill="#ECFF12"/>
<path d="M368.992 275C372.346 275 372.757 285.969 372.757 285.969C372.757 285.969 383.982 282.937 384.94 285.969C385.898 289 375.084 292.748 375.084 292.748C375.084 292.748 381.073 302.058 378.849 303.716C376.234 305.665 368.992 296.937 368.992 296.937C368.992 296.937 361.267 305.305 359.136 303.716C356.696 301.896 362.901 292.748 362.901 292.748C362.901 292.748 352.224 288.799 353.045 285.969C353.715 283.658 365.228 285.969 365.228 285.969C365.228 285.969 365.639 275 368.992 275Z" fill="#ECFF12"/>
<path d="M41.9911 226C45.9735 226 46.4616 239.616 46.4616 239.616C46.4616 239.616 59.7913 235.853 60.9287 239.616C62.0661 243.38 49.2246 248.031 49.2246 248.031C49.2246 248.031 56.3362 259.589 53.6951 261.648C50.5907 264.067 41.9911 253.232 41.9911 253.232C41.9911 253.232 32.8168 263.62 30.287 261.648C27.3888 259.388 34.7575 248.031 34.7575 248.031C34.7575 248.031 22.0789 243.13 23.0534 239.616C23.8488 236.748 37.5205 239.616 37.5205 239.616C37.5205 239.616 38.0086 226 41.9911 226Z" fill="#ECFF12"/>
<path d="M304.991 340C308.973 340 309.462 353.616 309.462 353.616C309.462 353.616 322.791 349.853 323.929 353.616C325.066 357.38 312.225 362.031 312.225 362.031C312.225 362.031 319.336 373.589 316.695 375.648C313.591 378.067 304.991 367.232 304.991 367.232C304.991 367.232 295.817 377.62 293.287 375.648C290.389 373.388 297.758 362.031 297.758 362.031C297.758 362.031 285.079 357.13 286.053 353.616C286.849 350.748 300.52 353.616 300.52 353.616C300.52 353.616 301.009 340 304.991 340Z" fill="#ECFF12"/>
<path d="M306.459 0C310.959 0 311.511 15.2016 311.511 15.2016C311.511 15.2016 326.573 11 327.858 15.2016C329.143 19.4033 314.633 24.5967 314.633 24.5967C314.633 24.5967 322.669 37.5 319.684 39.7984C316.176 42.5 306.459 30.4033 306.459 30.4033C306.459 30.4033 296.093 42 293.234 39.7984C289.959 37.2762 298.286 24.5967 298.286 24.5967C298.286 24.5967 283.959 19.1248 285.06 15.2016C285.959 12 301.408 15.2016 301.408 15.2016C301.408 15.2016 301.959 0 306.459 0Z" fill="#ECFF12"/>
<path d="M210.459 25C214.959 25 215.511 40.2016 215.511 40.2016C215.511 40.2016 230.573 36 231.858 40.2016C233.143 44.4033 218.633 49.5967 218.633 49.5967C218.633 49.5967 226.669 62.5 223.684 64.7984C220.176 67.5 210.459 55.4033 210.459 55.4033C210.459 55.4033 200.093 67 197.234 64.7984C193.959 62.2762 202.286 49.5967 202.286 49.5967C202.286 49.5967 187.959 44.1248 189.06 40.2016C189.959 37 205.408 40.2016 205.408 40.2016C205.408 40.2016 205.959 25 210.459 25Z" fill="#ECFF12"/>
<path d="M117.459 336C121.959 336 122.511 351.202 122.511 351.202C122.511 351.202 137.573 347 138.858 351.202C140.143 355.403 125.633 360.597 125.633 360.597C125.633 360.597 133.669 373.5 130.684 375.798C127.176 378.5 117.459 366.403 117.459 366.403C117.459 366.403 107.093 378 104.234 375.798C100.959 373.276 109.286 360.597 109.286 360.597C109.286 360.597 94.9591 355.125 96.0604 351.202C96.9591 348 112.408 351.202 112.408 351.202C112.408 351.202 112.959 336 117.459 336Z" fill="#ECFF12"/>
<path d="M406.459 183C410.959 183 411.511 198.202 411.511 198.202C411.511 198.202 426.573 194 427.858 198.202C429.143 202.403 414.633 207.597 414.633 207.597C414.633 207.597 422.669 220.5 419.684 222.798C416.176 225.5 406.459 213.403 406.459 213.403C406.459 213.403 396.093 225 393.234 222.798C389.959 220.276 398.286 207.597 398.286 207.597C398.286 207.597 383.959 202.125 385.06 198.202C385.959 195 401.408 198.202 401.408 198.202C401.408 198.202 401.959 183 406.459 183Z" fill="#ECFF12"/>
<path d="M172.996 348C174.673 348 174.879 353.295 174.879 353.295C174.879 353.295 180.491 351.832 180.97 353.295C181.449 354.759 176.042 356.568 176.042 356.568C176.042 356.568 179.036 361.062 177.924 361.863C176.617 362.804 172.996 358.59 172.996 358.59C172.996 358.59 169.133 362.63 168.068 361.863C166.848 360.984 169.951 356.568 169.951 356.568C169.951 356.568 164.612 354.662 165.023 353.295C165.357 352.18 171.114 353.295 171.114 353.295C171.114 353.295 171.319 348 172.996 348Z" fill="#ECFF12"/>
<path d="M355.996 176C357.673 176 357.879 181.295 357.879 181.295C357.879 181.295 363.491 179.832 363.97 181.295C364.449 182.759 359.042 184.568 359.042 184.568C359.042 184.568 362.036 189.062 360.924 189.863C359.617 190.804 355.996 186.59 355.996 186.59C355.996 186.59 352.133 190.63 351.068 189.863C349.848 188.984 352.951 184.568 352.951 184.568C352.951 184.568 347.612 182.662 348.023 181.295C348.357 180.18 354.114 181.295 354.114 181.295C354.114 181.295 354.319 176 355.996 176Z" fill="#ECFF12"/>
<path d="M331.996 117C333.673 117 333.879 122.295 333.879 122.295C333.879 122.295 339.491 120.832 339.97 122.295C340.449 123.759 335.042 125.568 335.042 125.568C335.042 125.568 338.036 130.062 336.924 130.863C335.617 131.804 331.996 127.59 331.996 127.59C331.996 127.59 328.133 131.63 327.068 130.863C325.848 129.984 328.951 125.568 328.951 125.568C328.951 125.568 323.612 123.662 324.023 122.295C324.357 121.18 330.114 122.295 330.114 122.295C330.114 122.295 330.319 117 331.996 117Z" fill="#ECFF12"/>
<path d="M68.9962 117C70.673 117 70.8786 122.295 70.8786 122.295C70.8786 122.295 76.4911 120.832 76.97 122.295C77.4489 123.759 72.0419 125.568 72.0419 125.568C72.0419 125.568 75.0363 130.062 73.9243 130.863C72.6172 131.804 68.9962 127.59 68.9962 127.59C68.9962 127.59 65.1334 131.63 64.0682 130.863C62.8479 129.984 65.9505 125.568 65.9505 125.568C65.9505 125.568 60.6121 123.662 61.0225 122.295C61.3574 121.18 67.1139 122.295 67.1139 122.295C67.1139 122.295 67.3194 117 68.9962 117Z" fill="#ECFF12"/>
</svg>
